<?xml version="1.0" encoding="UTF-8" standalone="no"?>
<!-- Created with Inkscape (http://www.inkscape.org/) -->

<svg
   xmlns:dc="http://purl.org/dc/elements/1.1/"
   xmlns:cc="http://creativecommons.org/ns#"
   xmlns:rdf="http://www.w3.org/1999/02/22-rdf-syntax-ns#"
   xmlns:svg="http://www.w3.org/2000/svg"
   xmlns="http://www.w3.org/2000/svg"
   xmlns:sodipodi="http://sodipodi.sourceforge.net/DTD/sodipodi-0.dtd"
   xmlns:inkscape="http://www.inkscape.org/namespaces/inkscape"
   width="2560"
   height="160"
   id="svg2"
   version="1.1"
   inkscape:version="0.48.3.1 r9886"
   sodipodi:docname="Neues Dokument 1">
  <defs
     id="defs4" />
  <sodipodi:namedview
     id="base"
     pagecolor="#ffffff"
     bordercolor="#666666"
     borderopacity="1.0"
     inkscape:pageopacity="0.0"
     inkscape:pageshadow="2"
     inkscape:zoom="0.12374369"
     inkscape:cx="784.30278"
     inkscape:cy="324.36856"
     inkscape:document-units="px"
     inkscape:current-layer="layer1"
     showgrid="false"
     fit-margin-top="0"
     fit-margin-left="0"
     fit-margin-right="0"
     fit-margin-bottom="0"
     inkscape:window-width="615"
     inkscape:window-height="366"
     inkscape:window-x="217"
     inkscape:window-y="628"
     inkscape:window-maximized="0" />
  <metadata
     id="metadata7">
    <rdf:RDF>
      <cc:Work
         rdf:about="">
        <dc:format>image/svg+xml</dc:format>
        <dc:type
           rdf:resource="http://purl.org/dc/dcmitype/StillImage" />
        <dc:title></dc:title>
      </cc:Work>
    </rdf:RDF>
  </metadata>
  <g
     inkscape:label="Ebene 1"
     inkscape:groupmode="layer"
     id="layer1"
     transform="translate(1028.5714,-420.9336)">
    <g
       id="g5175"
       transform="translate(3158.099,-3581.4287)">
      <rect
         y="-4186.6704"
         x="-4162.3623"
         height="80"
         width="160"
         id="rect5111"
         style="fill:#ff9d12;fill-opacity:1;stroke:none"
         transform="matrix(0,-1,1,0,0,0)" />
      <rect
         style="fill:#fb5b14;fill-opacity:1;stroke:none"
         id="rect5113"
         width="160"
         height="79.999992"
         x="-4162.3623"
         y="-4106.6704"
         transform="matrix(0,-1,1,0,0,0)" />
      <rect
         style="fill:#ea1616;fill-opacity:1;stroke:none"
         id="rect5115"
         width="160"
         height="80"
         x="-4162.3623"
         y="-4026.6704"
         transform="matrix(0,-1,1,0,0,0)" />
      <rect
         y="-3946.6704"
         x="-4162.3623"
         height="80"
         width="160"
         id="rect5117"
         style="fill:#b31313;fill-opacity:1;stroke:none"
         transform="matrix(0,-1,1,0,0,0)" />
      <rect
         y="-3146.6704"
         x="-4162.3623"
         height="80"
         width="160"
         id="rect5119"
         style="fill:#be9756;fill-opacity:1;stroke:none"
         transform="matrix(0,-1,1,0,0,0)" />
      <rect
         style="fill:#866630;fill-opacity:1;stroke:none"
         id="rect5121"
         width="160"
         height="80"
         x="-4162.3623"
         y="-3066.6699"
         transform="matrix(0,-1,1,0,0,0)" />
      <rect
         y="-3226.6704"
         x="-4162.3623"
         height="80"
         width="160"
         id="rect5123"
         style="fill:#dcbf90;fill-opacity:1;stroke:none"
         transform="matrix(0,-1,1,0,0,0)" />
      <rect
         y="-2986.6699"
         x="-4162.3623"
         height="80"
         width="160"
         id="rect5125"
         style="fill:#5b492b;fill-opacity:1;stroke:none"
         transform="matrix(0,-1,1,0,0,0)" />
      <rect
         transform="matrix(0,-1,1,0,0,0)"
         y="-3626.6704"
         x="-4162.3623"
         height="80"
         width="160"
         id="rect5127"
         style="fill:#fabc00;fill-opacity:1;stroke:none" />
      <rect
         transform="matrix(0,-1,1,0,0,0)"
         style="fill:#c2fa44;fill-opacity:1;stroke:none"
         id="rect5129"
         width="160"
         height="80"
         x="-4162.3623"
         y="-3546.6704" />
      <rect
         transform="matrix(0,-1,1,0,0,0)"
         style="fill:#41c01a;fill-opacity:1;stroke:none"
         id="rect5131"
         width="160"
         height="80"
         x="-4162.3623"
         y="-3386.6704" />
      <rect
         transform="matrix(0,-1,1,0,0,0)"
         y="-3306.6704"
         x="-4162.3623"
         height="80"
         width="160"
         id="rect5133"
         style="fill:#1a980e;fill-opacity:1;stroke:none" />
      <rect
         transform="matrix(0,-1,1,0,0,0)"
         style="fill:#68e71f;fill-opacity:1;stroke:none"
         id="rect5135"
         width="160"
         height="80"
         x="-4162.3623"
         y="-3466.6704" />
      <rect
         transform="matrix(0,-1,1,0,0,0)"
         style="fill:#b5e8ff;fill-opacity:1;stroke:none"
         id="rect5137"
         width="160"
         height="80"
         x="-4162.3623"
         y="-2906.6702" />
      <rect
         transform="matrix(0,-1,1,0,0,0)"
         y="-2826.6702"
         x="-4162.3623"
         height="80"
         width="160"
         id="rect5139"
         style="fill:#40c3fe;fill-opacity:1;stroke:none" />
      <rect
         style="fill:#017eb7;fill-opacity:1;stroke:none"
         id="rect5141"
         width="160"
         height="80"
         x="-4162.3623"
         y="-2746.6702"
         transform="matrix(0,-1,1,0,0,0)" />
      <rect
         y="-2666.6702"
         x="-4162.3623"
         height="80"
         width="160"
         id="rect5143"
         style="fill:#014868;fill-opacity:1;stroke:none"
         transform="matrix(0,-1,1,0,0,0)" />
      <rect
         style="fill:#74085b;fill-opacity:1;stroke:none"
         id="rect5145"
         width="160"
         height="80"
         x="-4162.3623"
         y="-2346.6702"
         transform="matrix(0,-1,1,0,0,0)" />
      <rect
         style="fill:#fb7fa3;fill-opacity:1;stroke:none"
         id="rect5147"
         width="160"
         height="80"
         x="-4162.3623"
         y="-2586.6702"
         transform="matrix(0,-1,1,0,0,0)" />
      <rect
         y="-2506.6702"
         x="-4162.3623"
         height="80"
         width="160"
         id="rect5149"
         style="fill:#f81968;fill-opacity:1;stroke:none"
         transform="matrix(0,-1,1,0,0,0)" />
      <rect
         transform="matrix(0,-1,1,0,0,0)"
         y="-2426.6702"
         x="-4162.3623"
         height="80"
         width="160"
         id="rect5151"
         style="fill:#c00465;fill-opacity:1;stroke:none" />
      <rect
         transform="matrix(0,-1,1,0,0,0)"
         y="-2266.6702"
         x="-4162.3623"
         height="80"
         width="160"
         id="rect5153"
         style="fill:#ffffff;fill-opacity:1;stroke:none" />
      <rect
         transform="matrix(0,-1,1,0,0,0)"
         style="fill:#eeeeee;fill-opacity:1;stroke:none"
         id="rect5155"
         width="160"
         height="80"
         x="-4162.3623"
         y="-2186.6702" />
      <rect
         transform="matrix(0,-1,1,0,0,0)"
         y="-2106.6704"
         x="-4162.3623"
         height="80"
         width="160"
         id="rect5157"
         style="fill:#d8d8d8;fill-opacity:1;stroke:none" />
      <rect
         style="fill:#bbbbbb;fill-opacity:1;stroke:none"
         id="rect5159"
         width="160"
         height="80"
         x="-4162.3623"
         y="-2026.6704"
         transform="matrix(0,-1,1,0,0,0)" />
      <rect
         style="fill:#999999;fill-opacity:1;stroke:none"
         id="rect5161"
         width="160"
         height="80"
         x="-4162.3623"
         y="-1946.6704"
         transform="matrix(0,-1,1,0,0,0)" />
      <rect
         style="fill:#666666;fill-opacity:1;stroke:none"
         id="rect5163"
         width="160"
         height="80"
         x="-4162.3623"
         y="-1866.6704"
         transform="matrix(0,-1,1,0,0,0)" />
      <rect
         transform="matrix(0,-1,1,0,0,0)"
         y="-1786.6704"
         x="-4162.3623"
         height="80"
         width="160"
         id="rect5165"
         style="fill:#333333;fill-opacity:1;stroke:none" />
      <rect
         style="fill:#000000;fill-opacity:1;stroke:none"
         id="rect5167"
         width="160"
         height="80"
         x="-4162.3623"
         y="-1706.6704"
         transform="matrix(0,-1,1,0,0,0)" />
      <rect
         y="-3866.6704"
         x="-4162.3623"
         height="80"
         width="160"
         id="rect5169"
         style="fill:#fcf697;fill-opacity:1;stroke:none"
         transform="matrix(0,-1,1,0,0,0)" />
      <rect
         transform="matrix(0,-1,1,0,0,0)"
         y="-3786.6704"
         x="-4162.3623"
         height="80"
         width="160"
         id="rect5171"
         style="fill:#fbf312;fill-opacity:1;stroke:none" />
      <rect
         style="fill:#fbe107;fill-opacity:1;stroke:none"
         id="rect5173"
         width="160"
         height="80"
         x="-4162.3623"
         y="-3706.6704"
         transform="matrix(0,-1,1,0,0,0)" />
    </g>
  </g>
</svg>
